# xmcd CD database file
#
# Track frame offsets:
#	187
#	26662
#	39550
#	58862
#	76112
#	95637
#	112620
#	128337
#	145712
#
# Disc length: 2139 seconds
#
# Revision: 0
# Processed by: cddbd v1.5PL3 Copyright (c) Steve Scherf et al.
# Submitted via: CDex 1.50beta8
#
DISCID=66085909
DTITLE=Novi Singers - Novi In Wonderland
DYEAR=1968
DGENRE=Jazz
TTITLE0=The Second Side
TTITLE1=Alice In Wonderland
TTITLE2=Satin Doll
TTITLE3=A Foggy Day In London Town
TTITLE4=Li'l Darling
TTITLE5=Kulfon
TTITLE6=I Don't Know
TTITLE7=Apartment Under The Roof
TTITLE8=Secret Life
EXTD=YEAR: 1968
EXTT0=
EXTT1=
EXTT2=
EXTT3=
EXTT4=
EXTT5=
EXTT6=
EXTT7=
EXTT8=
PLAYORDER=
